<svg width="78" height="78" viewBox="0 0 78 78" fill="none" xmlns="http://www.w3.org/2000/svg">
<circle cx="39" cy="39" r="39" fill="#C75E90"/>
<path d="M19.409 24.909C19.8162 24.5018 20.3787 24.25 21 24.25H57C57.6213 24.25 58.1838 24.5018 58.591 24.909M19.409 24.909C19.0018 25.3162 18.75 25.8787 18.75 26.5V53.5C18.75 54.7426 19.7574 55.75 21 55.75H57C58.2426 55.75 59.25 54.7426 59.25 53.5V26.5C59.25 25.8787 58.9982 25.3162 58.591 24.909M19.409 24.909L35.818 41.3179C37.5754 43.0753 40.4246 43.0753 42.182 41.3179L58.591 24.909" stroke="white" stroke-width="2.6" stroke-linecap="round" stroke-linejoin="round"/>
</svg>
