<svg width="78" height="78" viewBox="0 0 78 78" fill="none" xmlns="http://www.w3.org/2000/svg">
<circle cx="39" cy="39" r="39" fill="#C75E90"/>
<path d="M58.624 53.7712V48.0129C58.6474 47.0716 58.3233 46.1545 57.7134 45.4361C55.9934 43.4101 50.0944 42.1141 47.756 42.6119C45.9333 42.9998 44.658 44.83 43.4113 46.0743C38.5964 43.3419 34.6097 39.3631 31.8719 34.5578C33.1187 33.3135 34.9525 32.0408 35.3412 30.2216C35.8391 27.8915 34.545 22.0302 32.533 20.3033C31.8253 19.6959 30.9205 19.366 29.9871 19.3752H24.2175C22.0191 19.3773 20.1901 21.349 20.3903 23.5595C20.3752 42.6119 35.2502 57.625 54.4313 57.61C56.6537 57.8105 58.6329 55.9724 58.624 53.7712Z" stroke="white" stroke-width="2.6" stroke-linecap="round" stroke-linejoin="round"/>
</svg>
